<svg width="2232" height="809" viewBox="0 0 2232 809" fill="none" xmlns="http://www.w3.org/2000/svg">
<path d="M551.739 366.904C587.533 366.904 616.543 396.003 616.543 431.907V453.574C616.543 484.043 608.718 512.701 594.942 537.55C590.196 546.142 584.708 554.294 578.642 561.888C572.414 569.691 565.515 576.936 558.037 583.555C535.439 603.574 507.54 617.763 476.77 623.708C466.074 625.798 455.03 626.867 443.755 626.867H216.927C199.053 626.89 184.536 612.352 184.536 594.4C184.536 576.449 199.053 561.911 216.927 561.911H235.843C237.371 561.911 238.76 561.052 239.455 559.682C240.149 558.311 240.01 556.686 239.131 555.455C234.986 549.742 231.189 543.774 227.739 537.55C220.77 524.986 215.353 511.447 211.648 497.187C208.06 483.23 206.138 468.623 206.138 453.551V377.726C206.138 371.735 210.977 366.904 216.927 366.904H551.739V366.904Z" fill="#3031FF"/>
<path d="M544.77 319.552C542.733 322.06 539.63 323.524 536.366 323.524H218.849C215.631 323.524 212.551 322.107 210.491 319.599C208.453 317.091 207.62 313.747 208.268 310.518C209.148 306.176 210.19 301.903 211.37 297.629C214.982 284.857 220.076 272.618 226.373 261.215C235.704 244.471 247.674 229.353 261.751 216.603C257.722 210.333 254.689 202.832 252.536 195.052C244.71 167.416 260.408 149.325 289.65 155.828C290.182 155.944 290.692 156.06 291.224 156.176C306.412 159.984 320.073 167.486 326.37 179.655C342.554 174.638 359.78 171.921 377.584 171.921C395.458 171.921 412.66 174.615 428.844 179.655C435.095 167.486 448.756 159.915 463.921 156.176C464.453 156.06 464.962 155.944 465.495 155.828C473.899 154.016 481.146 154.179 487.027 156.013C498.812 159.59 505.295 169.715 504.6 183.603C504.484 187.179 503.836 191.034 502.678 195.075C500.456 202.855 497.423 210.31 493.394 216.557C507.471 229.329 519.487 244.425 528.771 261.238C538.519 279.051 544.191 297.955 546.877 310.426C547.595 313.654 546.831 316.975 544.77 319.552Z" fill="#3031FF"/>
<path d="M957.699 412.63C952.374 398.162 945.405 386.271 936.885 376.959C928.318 367.693 918.71 360.795 908.083 356.313C897.409 351.831 886.597 349.578 875.692 349.578C862.217 349.578 849.229 352.156 836.772 357.381C824.293 362.607 814.453 370.781 807.183 382.068H806.28V272.384H746.592V573.545H803.363V555.128C803.363 553.921 804.127 552.853 805.262 552.481C806.396 552.086 807.646 552.458 808.387 553.41C814.685 561.515 823.089 567.53 832.813 571.408C845.455 576.448 859.717 578.979 875.715 578.979C886.62 578.979 897.409 576.726 908.106 572.244C918.733 567.762 928.365 560.865 936.908 551.599C945.405 542.286 952.397 530.442 957.722 515.927C963.048 501.459 965.71 484.227 965.71 464.302C965.71 444.33 963.024 427.098 957.699 412.63ZM902.989 490.846C901.021 499.323 897.965 506.731 893.751 513.233C889.561 519.69 884.305 524.799 877.984 528.607C871.664 532.416 864.046 534.274 855.063 534.274C846.404 534.274 838.833 532.416 832.35 528.607C825.914 524.799 820.612 519.69 816.421 513.233C812.231 506.731 809.105 499.323 807.183 490.846C805.169 482.439 804.22 473.731 804.22 464.697C804.22 455.431 805.169 446.582 807.183 438.106C809.082 429.699 812.207 422.221 816.421 415.788C820.612 409.332 825.937 404.176 832.35 400.414C838.833 396.606 846.381 394.701 855.063 394.701C864.069 394.701 871.664 396.606 877.984 400.414C884.305 404.176 889.561 409.332 893.751 415.788C897.942 422.244 901.021 429.699 902.989 438.106C904.957 446.582 905.953 455.454 905.953 464.697C905.953 473.731 904.957 482.416 902.989 490.846Z" fill="#3031FF"/>
<path d="M1800.64 412.629C1795.32 398.161 1788.35 386.27 1779.83 376.958C1771.26 367.692 1761.65 360.794 1751.03 356.312C1740.35 351.83 1729.54 349.577 1718.64 349.577C1705.16 349.577 1692.17 352.155 1679.72 357.38C1667.24 362.606 1657.4 370.78 1650.13 382.067H1649.22V272.383H1589.54V573.544H1646.31V555.127C1646.31 553.92 1647.07 552.852 1648.21 552.48C1649.34 552.108 1650.59 552.457 1651.33 553.409C1657.63 561.514 1666.03 567.529 1675.76 571.407C1688.4 576.447 1702.66 578.978 1718.66 578.978C1729.56 578.978 1740.35 576.725 1751.05 572.243C1761.68 567.761 1771.31 560.864 1779.85 551.598C1788.35 542.285 1795.34 530.441 1800.67 515.926C1805.99 501.458 1808.65 484.226 1808.65 464.301C1808.65 444.329 1805.97 427.097 1800.64 412.629ZM1745.96 490.845C1743.99 499.322 1740.93 506.73 1736.72 513.233C1732.53 519.689 1727.27 524.798 1720.95 528.606C1714.63 532.415 1707.01 534.273 1698.03 534.273C1689.37 534.273 1681.8 532.415 1675.32 528.606C1668.88 524.798 1663.58 519.689 1659.39 513.233C1655.2 506.73 1652.07 499.322 1650.15 490.845C1648.14 482.438 1647.19 473.73 1647.19 464.696C1647.19 455.43 1648.14 446.581 1650.15 438.105C1652.05 429.698 1655.17 422.22 1659.39 415.787C1663.58 409.331 1668.9 404.176 1675.32 400.413C1681.8 396.605 1689.35 394.7 1698.03 394.7C1707.04 394.7 1714.63 396.605 1720.95 400.413C1727.27 404.176 1732.53 409.331 1736.72 415.787C1740.91 422.243 1743.99 429.698 1745.96 438.105C1747.92 446.581 1748.92 455.453 1748.92 464.696C1748.92 473.73 1747.9 482.415 1745.96 490.845Z" fill="#3031FF"/>
<path d="M1183.51 379.698C1177.58 371.686 1170.03 365.439 1160.79 360.957C1151.51 356.474 1141.28 353.432 1130.09 351.876C1118.84 350.367 1107.77 349.577 1096.87 349.577C1084.78 349.577 1072.81 350.762 1060.91 353.177C1048.99 355.522 1038.27 359.563 1028.75 365.183C1019.24 370.803 1011.37 378.258 1005.21 387.501C999.049 396.814 995.53 408.495 994.696 422.499H1054.43C1055.54 410.724 1059.45 402.294 1066.17 397.185C1072.88 392.146 1082.17 389.614 1093.91 389.614C1099.23 389.614 1104.26 389.939 1108.84 390.683C1113.49 391.356 1117.57 392.749 1121.04 394.886C1124.56 396.953 1127.36 399.925 1129.49 403.757C1131.55 407.519 1132.62 412.675 1132.62 419.131C1132.89 425.309 1131.04 430.023 1127.13 433.274C1123.22 436.525 1117.89 438.987 1111.2 440.682C1104.44 442.355 1096.71 443.609 1088.05 444.445C1079.39 445.281 1070.54 446.419 1061.58 447.812C1052.58 449.275 1043.69 451.133 1034.84 453.525C1026 455.871 1018.17 459.47 1011.3 464.301C1004.42 469.061 998.817 475.471 994.465 483.483C990.158 491.449 987.982 501.667 987.982 514.068C987.982 525.285 989.88 534.993 993.677 543.121C997.428 551.319 1002.68 558.053 1009.4 563.372C1016.16 568.713 1024.01 572.684 1032.94 575.216C1041.95 577.747 1051.63 578.978 1061.98 578.978C1075.45 578.978 1088.6 577.004 1101.52 573.079C1112.61 569.688 1122.5 564.092 1131.11 556.335C1131.88 555.638 1132.96 555.429 1133.94 555.778C1134.91 556.126 1135.6 556.985 1135.74 558.03C1135.97 559.749 1136.28 561.467 1136.6 563.139C1137.32 566.669 1138.22 570.106 1139.33 573.52H1192.3V411.56C1192.28 398.323 1189.36 387.733 1183.51 379.698ZM1132.59 489.15C1132.59 492.517 1132.27 496.999 1131.53 502.666C1130.86 508.286 1128.96 513.836 1125.88 519.317C1122.75 524.751 1117.98 529.465 1111.57 533.39C1105.13 537.385 1096.01 539.335 1084.23 539.335C1079.48 539.335 1074.83 538.894 1070.36 538.035C1065.89 537.199 1061.98 535.736 1058.62 533.599C1055.26 531.532 1052.58 528.606 1050.63 524.96C1048.69 521.314 1047.67 516.832 1047.67 511.444C1047.67 505.824 1048.67 501.226 1050.63 497.533C1052.6 493.887 1055.22 490.868 1058.41 488.499C1061.65 486.084 1065.4 484.18 1069.76 482.786C1074.11 481.393 1078.53 480.255 1083.02 479.419C1087.77 478.583 1092.54 477.91 1097.33 477.352C1102.08 476.795 1106.62 476.052 1110.97 475.216C1115.28 474.38 1119.35 473.311 1123.17 472.08C1126.97 470.78 1130.12 469.061 1132.62 466.809V489.15H1132.59Z" fill="#3031FF"/>
<path d="M1551.82 391.542C1547.84 381.556 1542.42 373.474 1535.43 367.25C1528.39 361.073 1519.99 356.591 1510.15 353.781C1500.35 350.971 1489.73 349.577 1478.22 349.577C1463.12 349.577 1449.97 353.223 1438.91 360.515C1427.84 367.854 1419.11 376.284 1412.63 385.829C1406.75 372.359 1398.13 362.931 1386.79 357.612C1375.4 352.271 1362.87 349.577 1349.12 349.577C1334.86 349.577 1322.17 352.666 1311.08 358.843C1301.24 364.045 1292.12 373.195 1286.77 379.187C1286 380.046 1284.78 380.348 1283.69 379.93C1282.6 379.512 1281.88 378.467 1281.88 377.306V355.476H1225.51V573.543H1285.24V446.976C1285.24 436.316 1286.75 427.677 1289.82 421.059C1292.9 414.44 1296.65 409.401 1301.01 405.847C1305.31 402.364 1309.78 399.949 1314.44 398.718C1319.09 397.417 1322.77 396.813 1325.57 396.813C1335.13 396.813 1342.36 398.439 1347.22 401.644C1352.15 404.895 1355.67 409.168 1357.73 414.486C1359.86 419.874 1361.04 425.703 1361.32 431.997C1361.6 438.337 1361.76 444.723 1361.76 451.179V573.543H1421.45V452.085C1421.45 445.304 1421.96 438.616 1422.95 431.997C1423.9 425.425 1425.87 419.549 1428.83 414.324C1431.8 409.099 1435.83 404.895 1441.04 401.644C1446.24 398.439 1453.01 396.813 1461.39 396.813C1469.84 396.813 1476.48 398.207 1481.41 401.017C1486.28 403.827 1490.03 407.636 1492.55 412.396C1495.07 417.157 1496.58 422.777 1497.13 429.28C1497.69 435.736 1497.97 442.633 1497.97 449.925V573.52H1557.7V427.538C1557.68 413.534 1555.73 401.528 1551.82 391.542Z" fill="#3031FF"/>
<path d="M1976.91 360.516L1929.37 508.123L1882.72 360.516H1815.42L1897.03 574.38L1870.06 654.5H1932.75L1958.36 569.735L2038.68 360.539H1976.91V360.516Z" fill="#3031FF"/>
</svg>
